<?xml version="1.0" encoding="UTF-8"?>
<!DOCTYPE svg PUBLIC "-//W3C//DTD SVG 1.1//EN" "http://www.w3.org/Graphics/SVG/1.1/DTD/svg11.dtd">
<!-- Creator: CorelDRAW -->
<svg xmlns="http://www.w3.org/2000/svg" xml:space="preserve" width="210mm" height="210mm" version="1.1" style="shape-rendering:geometricPrecision; text-rendering:geometricPrecision; image-rendering:optimizeQuality; fill-rule:evenodd; clip-rule:evenodd"
viewBox="0 0 21000 21000"
 xmlns:xlink="http://www.w3.org/1999/xlink"
 xmlns:xodm="http://www.corel.com/coreldraw/odm/2003">
 <defs>
  <style type="text/css">
   <![CDATA[
    .fil1 {fill:none}
    .fil3 {fill:#184277}
    .fil2 {fill:#6AB547}
    .fil0 {fill:#FFFDF1}
    .fil4 {fill:#184277;fill-rule:nonzero}
    .fil5 {fill:#6AB547;fill-rule:nonzero}
    .fil6 {fill:#898989;fill-rule:nonzero}
   ]]>
  </style>
 </defs>
 <g id="Layer_x0020_1">
  <metadata id="CorelCorpID_0Corel-Layer"/>
  <rect class="fil0" x="-302.13" y="-294.47" width="21590" height="21590"/>
  <rect class="fil1" x="-302.13" y="-287.87" width="21590" height="21590"/>
  <circle class="fil2" cx="11814.85" cy="6954.78" r="514.81"/>
  <circle class="fil3" cx="9170.9" cy="6954.78" r="514.81"/>
  <path class="fil4" d="M9820.67 8027.8c165.82,92.19 225.48,301.4 133.28,467.22 -92.19,165.82 -301.4,225.48 -467.22,133.29 -143.81,-80.02 -308.85,-109 -468.67,-87.17 -154.89,21.17 -304.76,91.21 -425.08,209.9 -144.84,142.89 -219.71,330.2 -223.64,518.79 -3.95,188.96 63.29,379.76 202.5,529.06l345.96 350.79c74.5,75.53 157.32,132.48 247.83,170.51 91.42,38.4 189.93,57.91 294.99,58.25 108.4,0.37 208.02,-18.13 298.21,-55.31 87.69,-36.15 170.63,-93.16 248.23,-170.74l793.93 -793.95c134.57,-134.57 352.83,-134.57 487.4,0 134.57,134.57 134.57,352.83 0,487.4l-793.93 793.95c-139.9,139.86 -298.35,246.3 -474.39,318.87 -173.55,71.53 -360.37,107.13 -559.45,106.46 -202.42,-0.69 -389.96,-37.29 -561.6,-109.4 -172.46,-72.46 -329.92,-180.65 -471.34,-324.02l-344.16 -348.88c-5.22,-4.94 -10.32,-10.04 -15.26,-15.37 -265.19,-284.4 -393.16,-649.06 -385.6,-1011.09 7.54,-362.39 150.93,-721.81 428.29,-995.43 229.57,-226.47 517.21,-360.32 815.56,-401.09 303.4,-41.48 618.2,14.41 894.16,167.96z"/>
  <path class="fil5" d="M11165.08 10884.34c-165.82,-92.19 -225.48,-301.4 -133.28,-467.22 92.19,-165.82 301.4,-225.48 467.22,-133.28 143.83,80.01 308.85,109.01 468.65,87.18 154.88,-21.16 304.78,-91.21 425.1,-209.9 144.84,-142.88 219.71,-330.22 223.64,-518.81 3.95,-188.96 -63.29,-379.76 -202.5,-529.06l-345.96 -350.79c-74.5,-75.53 -157.32,-132.48 -247.83,-170.51 -91.42,-38.4 -189.93,-57.91 -294.99,-58.25 -108.42,-0.37 -208.02,18.13 -298.21,55.31 -87.72,36.15 -170.63,93.16 -248.23,170.74l-793.93 793.95c-134.57,134.57 -352.83,134.57 -487.4,0 -134.57,-134.57 -134.57,-352.83 0,-487.4l793.93 -793.95c139.9,-139.86 298.35,-246.3 474.39,-318.87 173.55,-71.53 360.37,-107.13 559.45,-106.46 202.42,0.69 389.96,37.29 561.6,109.4 172.46,72.46 329.92,180.65 471.33,324.02l344.17 348.88c5.22,4.94 10.3,10.04 15.26,15.37 265.19,284.4 393.16,649.06 385.6,1011.09 -7.54,362.36 -150.93,721.84 -428.3,995.46 -229.56,226.46 -517.18,360.32 -815.57,401.08 -303.4,41.44 -618.18,-14.43 -894.14,-167.98z"/>
  <path class="fil6" d="M6170.65 14570.36l209.91 -459.17 47.88 0 209.91 459.17 -51.16 0 -192.86 -430.97 19.68 0 -192.85 430.97 -50.51 0zm82.65 -122.66l14.43 -39.36 266.98 0 14.43 39.36 -295.84 0z"/>
  <path id="_1" class="fil6" d="M7091.75 14570.36l0 -459.17 186.95 0c48.98,0 91.94,9.73 128.89,29.19 36.96,19.46 65.71,46.46 86.26,81.01 20.56,34.55 30.83,74.34 30.83,119.38 0,45.05 -10.27,84.84 -30.83,119.39 -20.55,34.55 -49.3,61.55 -86.26,81.01 -36.95,19.46 -79.91,29.19 -128.89,29.19l-186.95 0zm48.54 -41.98l135.78 0c40.67,0 75.99,-7.98 105.94,-23.94 29.96,-15.97 53.24,-38.05 69.86,-66.26 16.62,-28.2 24.93,-60.67 24.93,-97.41 0,-37.17 -8.31,-69.75 -24.93,-97.73 -16.62,-27.99 -39.9,-49.97 -69.86,-65.93 -29.95,-15.96 -65.27,-23.94 -105.94,-23.94l-135.78 0 0 375.21z"/>
  <polygon id="_2" class="fil6" points="7667.16,14570.36 7667.16,14111.19 7715.7,14111.19 7715.7,14570.36 "/>
  <path id="_3" class="fil6" d="M8100.23 14574.3c-34.99,0 -67.24,-5.8 -96.75,-17.39 -29.52,-11.59 -55.11,-27.88 -76.75,-48.87 -21.65,-20.99 -38.49,-45.69 -50.51,-74.12 -12.03,-28.42 -18.04,-59.47 -18.04,-93.15 0,-33.67 6.01,-64.72 18.04,-93.14 12.02,-28.43 28.97,-53.14 50.84,-74.13 21.86,-20.99 47.55,-37.28 77.07,-48.86 29.52,-11.59 61.77,-17.39 96.76,-17.39 34.98,0 67.01,5.47 96.09,16.4 29.08,10.93 53.9,27.55 74.45,49.85l-30.17 30.83c-19.24,-19.24 -40.45,-33.01 -63.63,-41.32 -23.17,-8.31 -48.1,-12.46 -74.78,-12.46 -28.42,0 -54.55,4.7 -78.38,14.1 -23.84,9.4 -44.61,22.74 -62.32,40.01 -17.71,17.28 -31.49,37.39 -41.33,60.35 -9.84,22.96 -14.75,48.21 -14.75,75.76 0,27.12 4.91,52.26 14.75,75.44 9.84,23.18 23.62,43.4 41.33,60.68 17.71,17.27 38.48,30.61 62.32,40.01 23.83,9.4 49.74,14.1 77.73,14.1 26.24,0 51.05,-3.93 74.45,-11.8 23.39,-7.88 44.93,-21.21 64.61,-40.02l27.55 36.74c-21.86,19.24 -47.45,33.78 -76.75,43.62 -29.3,9.84 -59.91,14.76 -91.83,14.76zm122.01 -64.29l0 -169.24 46.57 0 0 175.15 -46.57 -5.91z"/>
  <polygon id="_4" class="fil6" points="8439.5,14570.36 8439.5,14111.19 8488.04,14111.19 8488.04,14570.36 "/>
  <polygon id="_5" class="fil6" points="8761.06,14570.36 8760.4,14153.17 8599.03,14153.17 8599.03,14111.19 8970.31,14111.19 8970.31,14153.17 8808.29,14153.17 8808.94,14570.36 "/>
  <path id="_6" class="fil6" d="M8984.87 14570.36l209.91 -459.17 47.88 0 209.91 459.17 -51.16 0 -192.86 -430.97 19.68 0 -192.85 430.97 -50.51 0zm82.65 -122.66l14.43 -39.36 266.98 0 14.43 39.36 -295.84 0z"/>
  <polygon id="_7" class="fil6" points="9562.91,14570.36 9562.25,14111.19 9610.13,14111.19 9610.79,14528.38 9867.27,14528.38 9867.93,14570.36 "/>
  <path id="_8" class="fil6" d="M10252.45 14570.36l209.91 -459.17 47.88 0 209.91 459.17 -51.16 0 -192.86 -430.97 19.68 0 -192.85 430.97 -50.51 0zm82.65 -122.66l14.43 -39.36 266.98 0 14.43 39.36 -295.84 0z"/>
  <path id="_9" class="fil6" d="M11024.65 14574.3c-34.99,0 -67.24,-5.8 -96.75,-17.39 -29.52,-11.59 -55.11,-27.88 -76.75,-48.87 -21.65,-20.99 -38.49,-45.69 -50.51,-74.12 -12.03,-28.42 -18.04,-59.47 -18.04,-93.15 0,-33.67 6.01,-64.72 18.04,-93.14 12.02,-28.43 28.97,-53.14 50.84,-74.13 21.86,-20.99 47.55,-37.28 77.07,-48.86 29.52,-11.59 61.77,-17.39 96.76,-17.39 34.98,0 67.01,5.47 96.09,16.4 29.08,10.93 53.9,27.55 74.45,49.85l-30.17 30.83c-19.24,-19.24 -40.45,-33.01 -63.63,-41.32 -23.17,-8.31 -48.1,-12.46 -74.78,-12.46 -28.42,0 -54.55,4.7 -78.38,14.1 -23.84,9.4 -44.61,22.74 -62.32,40.01 -17.71,17.28 -31.49,37.39 -41.33,60.35 -9.84,22.96 -14.75,48.21 -14.75,75.76 0,27.12 4.91,52.26 14.75,75.44 9.84,23.18 23.62,43.4 41.33,60.68 17.71,17.27 38.48,30.61 62.32,40.01 23.83,9.4 49.74,14.1 77.73,14.1 26.24,0 51.05,-3.93 74.45,-11.8 23.39,-7.88 44.93,-21.21 64.61,-40.02l27.55 36.74c-21.86,19.24 -47.45,33.78 -76.75,43.62 -29.3,9.84 -59.91,14.76 -91.83,14.76zm122.01 -64.29l0 -169.24 46.57 0 0 175.15 -46.57 -5.91z"/>
  <path id="_10" class="fil6" d="M11363.92 14570.36l0 -459.17 171.86 0c38.92,0 72.38,6.23 100.36,18.69 27.99,12.47 49.53,30.4 64.61,53.79 15.09,23.4 22.64,51.71 22.64,84.95 0,32.36 -7.55,60.24 -22.64,83.63 -15.08,23.4 -36.62,41.33 -64.61,53.79 -27.98,12.47 -61.44,18.7 -100.36,18.7l-144.97 0 21.65 -22.31 0 167.93 -48.54 0zm313.55 0l-118.07 -166.61 52.47 0 118.73 166.61 -53.13 0zm-265.01 -163.99l-21.65 -22.96 143.66 0c45.92,0 80.79,-10.06 104.62,-30.17 23.84,-20.12 35.75,-48.33 35.75,-84.62 0,-36.74 -11.91,-65.16 -35.75,-85.28 -23.83,-20.11 -58.7,-30.17 -104.62,-30.17l-143.66 0 21.65 -22.96 0 276.16z"/>
  <path id="_11" class="fil6" d="M11915.06 14316.5l242.71 0 0 41.33 -242.71 0 0 -41.33zm4.59 211.88l276.82 0 -0.66 41.98 -324.04 0 0.66 -459.17 314.2 0 0 41.98 -266.32 0 -0.66 375.21z"/>
  <path id="_12" class="fil6" d="M12387.49 14316.5l242.71 0 0 41.33 -242.71 0 0 -41.33zm4.59 211.88l276.82 0 -0.66 41.98 -324.04 0 0.66 -459.17 314.2 0 0 41.98 -266.32 0 -0.66 375.21z"/>
  <polygon id="_13" class="fil6" points="12816.63,14570.36 12816.63,14111.19 12856.64,14111.19 13066.55,14469.34 13045.56,14469.34 13253.5,14111.19 13293.51,14111.19 13293.51,14570.36 13246.94,14570.36 13246.94,14184 13258.09,14184 13066.55,14511.98 13043.59,14511.98 12850.74,14184 12863.2,14184 12863.2,14570.36 "/>
  <path id="_14" class="fil6" d="M13519.95 14316.5l242.71 0 0 41.33 -242.71 0 0 -41.33zm4.59 211.88l276.82 0 -0.66 41.98 -324.04 0 0.66 -459.17 314.2 0 0 41.98 -266.32 0 -0.66 375.21z"/>
  <polygon id="_15" class="fil6" points="13949.09,14570.36 13949.09,14111.19 13989.1,14111.19 14305.93,14510.01 14284.94,14510.01 14284.94,14111.19 14332.83,14111.19 14332.83,14570.36 14292.81,14570.36 13976.64,14171.54 13997.63,14171.54 13997.63,14570.36 "/>
  <polygon id="_16" class="fil6" points="14605.85,14570.36 14605.19,14153.17 14443.82,14153.17 14443.82,14111.19 14815.1,14111.19 14815.1,14153.17 14653.08,14153.17 14653.73,14570.36 "/>
  <path class="fil4" d="M4921.12 12021.43l0 1261.16 -205.43 0 0 -566.27 -593.07 0 0 566.27 -203.64 0 0 -1261.16 203.64 0 0 528.76 593.07 0 0 -528.76 205.43 0zm1211.47 987.85l-0.7 0 -265.46 -746.7 -265.46 746.7 -0.71 0 -96.46 273.31 -217.94 0 464.45 -1241.51 234.01 0 462.67 1241.51 -217.94 0 -96.46 -273.31zm1699.14 273.31l-203.64 0 -612.72 -930.69 0 930.69 -203.64 0 0 -1259.38 203.64 0 612.72 934.26 0 -934.26 203.64 0 0 1259.38zm1541.95 -632.37c0,127.43 -25.91,238.48 -77.71,333.16 -51.8,94.67 -127.43,168.21 -226.87,220.61 -99.44,52.4 -218.23,78.6 -356.37,78.6l-421.58 0 0 -1261.16 421.58 0c138.14,0 256.93,25.9 356.37,77.7 99.44,51.81 175.07,124.75 226.87,218.83 51.8,94.08 77.71,204.84 77.71,332.26zm-677.03 448.38c151.24,0 267.36,-39.3 348.34,-117.9 80.98,-78.6 121.47,-188.76 121.47,-330.48 0,-141.71 -40.49,-251.87 -121.47,-330.47 -80.98,-78.6 -197.1,-117.9 -348.34,-117.9l-201.86 0 0 896.75 201.86 0z"/>
  <path class="fil5" d="M10668.22 12008.92c154.82,0 283.43,39.3 385.85,117.9 102.42,78.6 171.49,185.19 207.22,319.76l-216.15 0c-29.77,-76.22 -77.11,-136.66 -142.02,-181.32 -64.9,-44.66 -144.39,-66.98 -238.47,-66.98 -75.03,0 -142.02,18.45 -200.97,55.37 -58.95,36.92 -105.39,89.62 -139.33,158.09 -33.94,68.48 -50.91,148.57 -50.91,240.27 0,90.51 16.97,170 50.91,238.48 33.94,68.47 80.38,121.17 139.33,158.09 58.95,36.92 125.94,55.38 200.97,55.38 94.08,0 173.57,-22.33 238.47,-66.99 64.91,-44.66 112.25,-104.5 142.02,-179.53l216.15 0c-35.73,134.57 -104.8,240.86 -207.22,318.86 -102.42,78.01 -231.03,117.01 -385.85,117.01 -119.09,0 -224.49,-27.09 -316.19,-81.28 -91.69,-54.19 -162.55,-129.81 -212.57,-226.87 -50.02,-97.06 -75.03,-208.11 -75.03,-333.15 0,-125.05 25.01,-236.1 75.03,-333.16 50.02,-97.05 120.88,-172.97 212.57,-227.76 91.7,-54.78 197.1,-82.17 316.19,-82.17zm1672.34 1273.67l-314.39 -503.75 -144.7 0 0 503.75 -203.64 0 0 -1261.16 444.8 0c144.1,0 253.36,35.13 327.79,105.39 74.44,70.26 111.65,163.15 111.65,278.67 0,98.85 -27.69,179.83 -83.06,242.95 -55.38,63.11 -135.47,103.6 -240.27,121.47l330.48 512.68 -228.66 0zm-459.09 -648.45l225.08 0c164.35,0 246.52,-72.64 246.52,-217.93 0,-69.07 -19.95,-122.96 -59.84,-161.66 -39.9,-38.71 -102.12,-58.06 -186.68,-58.06l-225.08 0 0 437.65zm1281.14 -448.37l0 382.28 464.45 0 0 157.2 -464.45 0 0 391.21 518.04 0 0 166.13 -721.68 0 0 -1261.16 721.68 0 0 164.34 -518.04 0zm2011.76 464.45c0,127.43 -25.91,238.48 -77.71,333.16 -51.8,94.67 -127.43,168.21 -226.87,220.61 -99.44,52.4 -218.23,78.6 -356.37,78.6l-421.58 0 0 -1261.16 421.58 0c138.14,0 256.93,25.9 356.37,77.7 99.44,51.81 175.07,124.75 226.87,218.83 51.8,94.08 77.71,204.84 77.71,332.26zm-677.03 448.38c151.24,0 267.36,-39.3 348.34,-117.9 80.98,-78.6 121.47,-188.76 121.47,-330.48 0,-141.71 -40.49,-251.87 -121.47,-330.47 -80.98,-78.6 -197.1,-117.9 -348.34,-117.9l-201.86 0 0 896.75 201.86 0zm1299 -1077.17l0 1261.16 -203.64 0 0 -1261.16 203.64 0zm1270.42 0l0 164.34 -351.91 0 0 1096.82 -205.43 0 0 -1096.82 -350.12 0 0 -164.34 907.46 0z"/>
 </g>
</svg>
